<svg width="63" height="41" viewBox="0 0 63 41" fill="none" xmlns="http://www.w3.org/2000/svg">
<rect width="63" height="41" rx="4" fill="black"/>
<g clip-path="url(#clip0_1_6)">
<path d="M16 33C11.5817 33 8 29.4183 8 25C8 20.5817 11.5817 17 16 17V33Z" fill="white"/>
<path d="M16 8H8V16H16V8Z" fill="white"/>
<path d="M21 16C23.2091 16 25 14.2091 25 12C25 9.79086 23.2091 8 21 8C18.7909 8 17 9.79086 17 12C17 14.2091 18.7909 16 21 16Z" fill="white"/>
</g>
<g clip-path="url(#clip1_1_6)">
<path d="M53.5928 11.3049C51.1484 7.97858 46.2819 7.00401 42.7834 9.10146L36.6162 12.8303C34.9343 13.826 33.7681 15.4574 33.4317 17.3006C33.1402 18.8472 33.3869 20.4362 34.1718 21.8133C33.6336 22.576 33.2748 23.4235 33.1178 24.3133C32.759 26.1989 33.2299 28.1481 34.3961 29.6947C36.8629 33.021 41.707 33.9955 45.2054 31.8981L51.3726 28.1904C53.0546 27.1947 54.2207 25.5633 54.5571 23.7201C54.8487 22.1735 54.602 20.5845 53.8171 19.2074C54.3553 18.4447 54.7141 17.5972 54.8711 16.7074C55.2523 14.8006 54.7814 12.8515 53.5928 11.3049Z" fill="white"/>
<path d="M42.0977 30.0127C40.1018 30.5 38.0162 29.7585 36.85 28.1695C36.1324 27.2373 35.8633 26.072 36.0651 24.928C36.11 24.7373 36.1548 24.5678 36.1997 24.3771L36.3118 24.0381L36.6258 24.25C37.3658 24.7585 38.1732 25.1398 39.0478 25.3941L39.272 25.4576L39.2496 25.6695C39.2272 25.9661 39.3169 26.2839 39.4963 26.5381C39.8551 27.0254 40.483 27.2585 41.0885 27.1102C41.2231 27.0678 41.3577 27.0254 41.4698 26.9619L47.6145 23.2542C47.9285 23.0636 48.1303 22.7881 48.1976 22.4492C48.2649 22.1102 48.1752 21.75 47.9734 21.4746C47.6145 20.9873 46.9866 20.7754 46.3811 20.9237C46.2465 20.9661 46.112 21.0085 45.9999 21.072L43.6451 22.4915C43.2639 22.7246 42.8378 22.8941 42.3893 23C40.3933 23.4873 38.3077 22.7458 37.1416 21.1568C36.4463 20.2246 36.1548 19.0593 36.3791 17.9153C36.5809 16.8136 37.2985 15.8178 38.3077 15.2246L44.4749 11.5169C44.8561 11.2839 45.2822 11.1144 45.7307 10.9873C47.7267 10.5 49.8123 11.2415 50.9785 12.8305C51.6961 13.7627 51.9652 14.928 51.7634 16.072C51.7185 16.2627 51.6737 16.4322 51.6064 16.6229L51.4943 16.9619L51.1803 16.75C50.4402 16.2415 49.6329 15.8602 48.7583 15.6059L48.534 15.5424L48.5564 15.3305C48.5789 15.0339 48.4892 14.7161 48.3097 14.4619C47.9509 13.9746 47.323 13.7627 46.7175 13.911C46.5829 13.9534 46.4484 13.9958 46.3362 14.0593L40.1915 17.7669C39.8775 17.9576 39.6757 18.2331 39.6084 18.572C39.5411 18.911 39.6308 19.2712 39.8327 19.5466C40.1915 20.0339 40.8194 20.2458 41.4249 20.0975C41.5595 20.0551 41.694 20.0127 41.8062 19.9492L44.1609 18.5297C44.5422 18.2966 44.9683 18.1271 45.4168 18C47.4127 17.5127 49.4983 18.2542 50.6645 19.8432C51.3821 20.7754 51.6512 21.9407 51.4494 23.0847C51.2476 24.1864 50.5299 25.1822 49.5208 25.7754L43.3536 29.483C42.9723 29.7161 42.5462 29.8856 42.0977 30.0127Z" fill="black"/>
</g>
<defs>
<clipPath id="clip0_1_6">
<rect width="17" height="25" fill="white" transform="translate(8 8)"/>
</clipPath>
<clipPath id="clip1_1_6">
<rect width="22" height="25" fill="white" transform="translate(33 8)"/>
</clipPath>
</defs>
</svg>
