<svg width="128" height="128" viewBox="0 0 128 128" fill="none" xmlns="http://www.w3.org/2000/svg">
<g clip-path="url(#clip0_375_141)">
<path d="M72.5 89.7227C72.5 88.0658 71.1569 86.7227 69.5 86.7227V86.7227C61.768 86.7227 55.5 93.0527 55.5 100.861V106.416C55.5 111.156 59.3056 115 64 115C68.6944 115 72.5 111.156 72.5 106.416V89.7227Z" fill="#BB6F5D"/>
<path d="M38.5 76.6831C38.5 79.9968 41.1863 82.6831 44.5 82.6831H83.5C86.8137 82.6831 89.5 79.9968 89.5 76.6831V48.3465L63.5 32.693V32.693C53.1872 24.986 38.5 32.3454 38.5 45.2198V76.6831Z" fill="#72470D"/>
<path d="M89.5 40.5C89.5 26.4167 78.0833 15 64 15V15C49.9167 15 38.5 26.4167 38.5 40.5V79.8136C38.5 82.678 40.822 85 43.6864 85V85C46.5508 85 48.8729 82.678 48.8729 79.8136V65.9703C48.8729 63.2253 51.0982 61 53.8432 61V61C56.5883 61 58.8136 63.2253 58.8136 65.9703V73.4306C58.8136 76.295 61.1356 78.617 64 78.617H64.5375C67.105 78.617 69.1864 76.5356 69.1864 73.9681V73.6101C69.1864 71.2403 71.1076 69.3191 73.4774 69.3191H73.978C76.1086 69.3191 78.0919 70.4065 79.2377 72.2028V72.2028C79.8506 73.1636 80.8679 73.7929 82.0014 73.9123L83.0189 74.0195C86.4829 74.3843 89.5 71.6683 89.5 68.1852V40.5Z" fill="#F7B155"/>
</g>
<defs>
<clipPath id="clip0_375_141">
<rect width="51" height="102" fill="white" transform="translate(38.5 13)"/>
</clipPath>
</defs>
</svg>
