<svg width="340" height="109" viewBox="0 0 340 109" fill="none" xmlns="http://www.w3.org/2000/svg">
<path d="M37 79H34C26.268 79 20 85.268 20 93V98.5C20 103.194 23.8056 107 28.5 107C33.1944 107 37 103.194 37 98.5V79Z" fill="#BB6F5D"/>
<path d="M8 57C12.4183 57 16 60.5817 16 65V82C16 84.2091 14.2091 86 12 86C9.7909 86 8 84.2091 8 82V57Z" fill="#F7B155"/>
<path d="M3 52C7.41828 52 11 55.5817 11 60V77C11 79.2091 9.20914 81 7 81C4.79086 81 3 79.2091 3 77V52Z" fill="#F7B155"/>
<path d="M13 46C17.4183 46 21 49.5817 21 54V71C21 73.2091 19.2091 75 17 75C14.7909 75 13 73.2091 13 71V46Z" fill="#F7B155"/>
<path d="M26.0408 9.12947C26.1745 7.65402 25.1008 6.12474 23.6417 6.38123C11.9124 8.44298 3 18.6796 3 31V75H48C51.3137 75 54 72.3137 54 69V31V31C54 30.1099 53.0658 29.5483 52.1982 29.7472C51.4789 29.9121 50.7417 29.9973 50 30C44.4772 30 40 25.5228 40 20V20C40.0033 19.5954 39.6105 19.3036 39.2287 19.4375C38.1927 19.8006 37.1019 19.9913 36 20C30.4772 20 26 15.5228 26 10C26.0009 9.70885 26.0146 9.41841 26.0408 9.12947Z" fill="#F7B155"/>
<path d="M103.25 77.75C101.854 77.75 100.688 77.2604 99.75 76.2812C98.8333 75.3021 98.375 74.0521 98.375 72.5312V37.3438C98.375 35.4688 98.9062 33.9896 99.9688 32.9062C101.031 31.8021 102.417 31.25 104.125 31.25C105.625 31.25 106.833 31.6146 107.75 32.3438C108.667 33.0729 109.604 34.3125 110.562 36.0625L122.812 58.8438L135.031 36.0625C135.99 34.3125 136.927 33.0729 137.844 32.3438C138.781 31.6146 139.99 31.25 141.469 31.25C143.177 31.25 144.562 31.8021 145.625 32.9062C146.708 33.9896 147.25 35.4688 147.25 37.3438V72.5312C147.25 74.0521 146.781 75.3021 145.844 76.2812C144.927 77.2604 143.76 77.75 142.344 77.75C140.927 77.75 139.76 77.25 138.844 76.25C137.927 75.25 137.469 74.0104 137.469 72.5312V50.1875L128.781 66.75C127.656 68.8125 126.698 70.2083 125.906 70.9375C125.115 71.6458 124.073 72 122.781 72C121.531 72 120.5 71.6458 119.688 70.9375C118.896 70.2083 117.948 68.8125 116.844 66.75L108.188 50.25V72.5312C108.188 74.0104 107.719 75.25 106.781 76.25C105.844 77.25 104.667 77.75 103.25 77.75ZM175.406 77.9375C169.719 77.9375 165.167 76.3021 161.75 73.0312C158.333 69.7396 156.625 65.3438 156.625 59.8438C156.625 54.5104 158.271 50.1562 161.562 46.7812C164.875 43.3854 169.125 41.6875 174.312 41.6875C179.312 41.6875 183.354 43.1771 186.438 46.1562C189.542 49.1146 191.094 52.9062 191.094 57.5312C191.094 59.3438 190.698 60.6771 189.906 61.5312C189.115 62.3646 187.885 62.7812 186.219 62.7812H166C166.333 64.8229 167.385 66.4375 169.156 67.625C170.927 68.7917 173.156 69.375 175.844 69.375C178.781 69.375 181.104 68.5521 182.812 66.9062C184.271 65.9479 185.594 65.4688 186.781 65.4688C189.115 65.4688 190.281 66.6979 190.281 69.1562C190.281 70.1979 189.865 71.2812 189.031 72.4062C187.802 74.1354 185.938 75.4896 183.438 76.4688C180.958 77.4479 178.281 77.9375 175.406 77.9375ZM166 55.5938H181.844C181.573 53.5521 180.74 51.9583 179.344 50.8125C177.948 49.6458 176.146 49.0625 173.938 49.0625C171.729 49.0625 169.917 49.6458 168.5 50.8125C167.104 51.9792 166.271 53.5729 166 55.5938ZM204.5 77.75C203.104 77.75 201.969 77.3021 201.094 76.4062C200.24 75.4896 199.812 74.3125 199.812 72.875V36.125C199.812 34.6875 200.24 33.5208 201.094 32.625C201.969 31.7083 203.104 31.25 204.5 31.25C205.875 31.25 206.99 31.7083 207.844 32.625C208.719 33.5208 209.156 34.6875 209.156 36.125V72.875C209.156 74.3125 208.719 75.4896 207.844 76.4062C206.99 77.3021 205.875 77.75 204.5 77.75ZM234.719 77.9375C231.49 77.9375 228.844 76.9271 226.781 74.9062C224.719 72.8854 223.688 70.2188 223.688 66.9062V51.0312H220.25C218.979 51.0312 217.927 50.6354 217.094 49.8438C216.281 49.0521 215.875 48.0417 215.875 46.8125C215.875 45.5833 216.281 44.5833 217.094 43.8125C217.906 43.0208 218.958 42.625 220.25 42.625H223.688V37.1875C223.688 35.75 224.125 34.5833 225 33.6875C225.875 32.7708 227 32.3125 228.375 32.3125C229.771 32.3125 230.896 32.7708 231.75 33.6875C232.625 34.5833 233.062 35.75 233.062 37.1875V42.625H240.75C242.042 42.625 243.094 43.0208 243.906 43.8125C244.719 44.5833 245.125 45.5833 245.125 46.8125C245.125 48.0417 244.708 49.0521 243.875 49.8438C243.062 50.6354 242.021 51.0312 240.75 51.0312H233.062V65.5C233.062 67.875 234.042 69.0625 236 69.0625C236.896 69.0625 237.979 68.5729 239.25 67.5938C240.271 66.8021 241.333 66.4062 242.438 66.4062C243.5 66.4062 244.365 66.75 245.031 67.4375C245.698 68.125 246.031 69.0208 246.031 70.125C246.031 71.8958 245.312 73.4375 243.875 74.75C242.792 75.7292 241.438 76.5 239.812 77.0625C238.188 77.6458 236.49 77.9375 234.719 77.9375ZM306.094 72.8438C302.615 76.2396 297.969 77.9375 292.156 77.9375C286.344 77.9375 281.688 76.2396 278.188 72.8438C274.708 69.4271 272.969 64.9062 272.969 59.2812V36.3438C272.969 34.8438 273.438 33.625 274.375 32.6875C275.312 31.7292 276.521 31.25 278 31.25C279.458 31.25 280.635 31.7292 281.531 32.6875C282.427 33.625 282.875 34.8438 282.875 36.3438V58.3438C282.875 61.2188 283.719 63.5417 285.406 65.3125C287.115 67.0833 289.365 67.9688 292.156 67.9688C294.969 67.9688 297.219 67.0833 298.906 65.3125C300.615 63.5417 301.469 61.2188 301.469 58.3438V36.3438C301.469 34.8438 301.917 33.625 302.812 32.6875C303.708 31.7292 304.885 31.25 306.344 31.25C307.823 31.25 309.021 31.7292 309.938 32.6875C310.875 33.625 311.344 34.8438 311.344 36.3438V59.2812C311.344 64.9062 309.594 69.4271 306.094 72.8438ZM328.312 77.75C326.833 77.75 325.635 77.2812 324.719 76.3438C323.823 75.4062 323.375 74.1771 323.375 72.6562V36.3438C323.375 34.8229 323.823 33.5938 324.719 32.6562C325.635 31.7188 326.833 31.25 328.312 31.25C329.812 31.25 331.01 31.7188 331.906 32.6562C332.823 33.5938 333.281 34.8229 333.281 36.3438V72.6562C333.281 74.1771 332.823 75.4062 331.906 76.3438C331.01 77.2812 329.812 77.75 328.312 77.75Z" fill="white"/>
</svg>
