<svg width="305" height="107" viewBox="0 0 305 107" fill="none" xmlns="http://www.w3.org/2000/svg">
<path d="M48.5357 22.1579C45.1542 22.1579 41.9112 20.8188 39.5201 18.4351C37.129 16.0514 35.7857 12.8184 35.7857 9.44737V9.44737C35.8143 7.1669 34.7413 4.75061 32.4927 4.36944C31.1751 4.14607 29.8404 4.02227 28.5 4C21.737 4 15.251 6.67828 10.4688 11.4457C5.6866 16.213 3 22.679 3 29.4211V65.7368C3 66.0703 3 66.5061 3 66.9986C3 70.3123 5.68762 73 9.00133 73C9.50308 73 9.94697 73 10.2857 73H46.7143C47.053 73 47.4969 73 47.9987 73C51.3124 73 54 70.3123 54 66.9986C54 66.5061 54 66.0703 54 65.7368V29.4211C53.9727 27.79 53.6561 26.2485 53.3013 24.6711C52.9712 23.203 50.9708 22.22 49.4667 22.175C49.1571 22.1657 48.8464 22.154 48.5357 22.1579Z" fill="#F7B155"/>
<path d="M37 77H34C26.268 77 20 83.268 20 91V96.5C20 101.194 23.8056 105 28.5 105V105C33.1944 105 37 101.194 37 96.5V77Z" fill="#BB6F5D"/>
<path d="M93.48 78V31.92H100.424L116.36 64.56L132.296 31.92H139.24V78H132.04V48.464L117.896 78H114.824L100.712 48.464V78H93.48ZM163.942 78.96C160.443 78.96 157.371 78.2027 154.726 76.688C152.081 75.1733 150.011 73.072 148.518 70.384C147.046 67.696 146.31 64.6027 146.31 61.104C146.31 57.328 147.035 54.0533 148.486 51.28C149.937 48.4853 151.953 46.32 154.534 44.784C157.115 43.248 160.102 42.48 163.494 42.48C167.078 42.48 170.118 43.3227 172.614 45.008C175.131 46.672 176.998 49.0293 178.214 52.08C179.43 55.1307 179.889 58.7253 179.59 62.864H171.942V60.048C171.921 56.2933 171.259 53.552 169.958 51.824C168.657 50.096 166.609 49.232 163.814 49.232C160.657 49.232 158.31 50.2133 156.774 52.176C155.238 54.1173 154.47 56.9653 154.47 60.72C154.47 64.2187 155.238 66.928 156.774 68.848C158.31 70.768 160.55 71.728 163.494 71.728C165.393 71.728 167.025 71.312 168.39 70.48C169.777 69.6267 170.843 68.4 171.59 66.8L179.206 69.104C177.883 72.2187 175.835 74.64 173.062 76.368C170.31 78.096 167.27 78.96 163.942 78.96ZM152.038 62.864V57.04H175.814V62.864H152.038ZM187.37 78V30.96H195.082V78H187.37ZM224.924 78C222.641 78.4267 220.401 78.608 218.204 78.544C216.028 78.5013 214.076 78.1067 212.348 77.36C210.62 76.592 209.308 75.3867 208.411 73.744C207.622 72.2507 207.206 70.7253 207.164 69.168C207.121 67.6107 207.1 65.8507 207.1 63.888V33.84H214.78V63.44C214.78 64.8267 214.79 66.0427 214.812 67.088C214.854 68.1333 215.078 68.9867 215.484 69.648C216.252 70.928 217.478 71.6427 219.164 71.792C220.849 71.9413 222.769 71.856 224.924 71.536V78ZM200.828 49.488V43.44H224.924V49.488H200.828ZM263.728 78.96C260.058 78.96 256.826 78.2133 254.032 76.72C251.258 75.2267 249.082 73.1253 247.504 70.416C245.946 67.7067 245.168 64.528 245.168 60.88V31.984L252.976 31.92V60.688C252.976 62.416 253.264 63.9627 253.84 65.328C254.437 66.6933 255.237 67.856 256.24 68.816C257.242 69.7547 258.394 70.4693 259.696 70.96C260.997 71.4507 262.341 71.696 263.728 71.696C265.157 71.696 266.512 71.4507 267.792 70.96C269.093 70.448 270.245 69.7227 271.248 68.784C272.25 67.824 273.04 66.6613 273.616 65.296C274.192 63.9307 274.479 62.3947 274.479 60.688V31.92H282.288V60.88C282.288 64.528 281.498 67.7067 279.92 70.416C278.362 73.1253 276.186 75.2267 273.392 76.72C270.618 78.2133 267.397 78.96 263.728 78.96ZM291.87 78V31.92H299.582V78H291.87Z" fill="white"/>
</svg>
